<svg width="48" height="48" viewBox="0 0 48 48" fill="none" xmlns="http://www.w3.org/2000/svg">
<path d="M44 1H4C2.34315 1 1 2.34315 1 4V44C1 45.6569 2.34315 47 4 47H44C45.6569 47 47 45.6569 47 44V4C47 2.34315 45.6569 1 44 1Z" stroke="#C8C8C8" stroke-width="2"/>
<path d="M44 1H4C2.34315 1 1 2.34315 1 4V44C1 45.6569 2.34315 47 4 47H44C45.6569 47 47 45.6569 47 44V4C47 2.34315 45.6569 1 44 1Z" stroke="#C8C8C8" stroke-width="2"/>
<path d="M18 28C22.9706 28 27 23.9706 27 19C27 14.0294 22.9706 10 18 10C13.0294 10 9 14.0294 9 19C9 23.9706 13.0294 28 18 28Z" fill="#C8C8C8"/>
<path d="M35.5 19.5C37.7091 19.5 39.5 17.7091 39.5 15.5C39.5 13.2909 37.7091 11.5 35.5 11.5C33.2909 11.5 31.5 13.2909 31.5 15.5C31.5 17.7091 33.2909 19.5 35.5 19.5Z" stroke="#C8C8C8"/>
<path d="M18.5 37.5C19.6046 37.5 20.5 36.6046 20.5 35.5C20.5 34.3954 19.6046 33.5 18.5 33.5C17.3954 33.5 16.5 34.3954 16.5 35.5C16.5 36.6046 17.3954 37.5 18.5 37.5Z" stroke="#C8C8C8"/>
<path d="M33 35C34.6569 35 36 33.6569 36 32C36 30.3431 34.6569 29 33 29C31.3431 29 30 30.3431 30 32C30 33.6569 31.3431 35 33 35Z" fill="#C8C8C8"/>
</svg>
